<?xml version="1.0" encoding="UTF-8" standalone="no"?>
<svg
   fill="none"
   height="26"
   viewBox="0 0 26 26"
   width="26"
   version="1.1"
   id="svg9"
   xmlns="http://www.w3.org/2000/svg"
   xmlns:svg="http://www.w3.org/2000/svg">
  <defs
     id="defs9" />
  <clipPath
     id="a">
    <path
       d="M 0,0 H 77 V 26 H 0 Z"
       id="path1" />
  </clipPath>
  <g
     clip-path="url(#a)"
     id="g9">
    <path
       d="M 13,26 C 20.176,26 26,20.176 26,13 26,5.824 20.176,0 13,0 5.824,0 0,5.824 0,13 0,20.176 5.824,26 13,26 Z"
       fill="#f03"
       id="path7"
       style="font-variation-settings:normal;opacity:1;vector-effect:none;fill:#ff0033;fill-opacity:1;stroke-width:1;stroke-linecap:butt;stroke-linejoin:miter;stroke-miterlimit:4;stroke-dasharray:none;stroke-dashoffset:0;stroke-opacity:1;-inkscape-stroke:none;stop-color:#000000;stop-opacity:1" />
    <path
       d="m 20.5,13 c 0,4.1439 -3.3561,7.5 -7.5,7.5 -4.14386,0 -7.5,-3.3561 -7.5,-7.5 0,-4.14386 3.35614,-7.5 7.5,-7.5 4.1439,0 7.5,3.35614 7.5,7.5 z"
       stroke="#ffffff"
       id="path8" />
    <path
       d="m 17.75,13 -7.5,-4.25 v 8.5 z"
       fill="#ffffff"
       id="path9" />
  </g>
</svg>
